<?xml version="1.0" encoding="utf-8"?>
<!-- Generator: Adobe Illustrator 22.0.0, SVG Export Plug-In . SVG Version: 6.00 Build 0)  -->
<svg version="1.1" id="Layer_1" xmlns="http://www.w3.org/2000/svg" xmlns:xlink="http://www.w3.org/1999/xlink" x="0px" y="0px"
	 viewBox="0 0 113.6 116.7" style="enable-background:new 0 0 113.6 116.7;" xml:space="preserve">
<style type="text/css">
	.st0{stroke:#FFFFFF;stroke-miterlimit:10;fill:#DDDDDD}
</style>
<path class="st0" d="M26.4,116.7H14.6c-4.4,0-8-3.6-8-8V8c0-4.4,3.6-8,8-8h11.7c4.4,0,8,3.6,8,8v100.7
	C34.4,113.1,30.8,116.7,26.4,116.7z"/>
<path class="st0" d="M99,116.7H87.3c-4.4,0-8-3.6-8-8V8c0-4.4,3.6-8,8-8H99c4.4,0,8,3.6,8,8v100.7C107,113.1,103.4,116.7,99,116.7z"
	/>
</svg>
