<?xml version="1.0" encoding="utf-8"?>
<!-- Generator: Adobe Illustrator 22.0.0, SVG Export Plug-In . SVG Version: 6.00 Build 0)  -->
<svg version="1.1" id="Layer_1" xmlns="http://www.w3.org/2000/svg" xmlns:xlink="http://www.w3.org/1999/xlink" x="0px" y="0px"
	 viewBox="0 0 100 100" style="enable-background:new 0 0 100 100;" xml:space="preserve">
<style type="text/css">
	.st0{opacity:0.25;fill:#666666;}
	.st1{opacity:0.75;}
	.st2{fill:#4D4D4D;}
</style>
<circle class="st0" cx="50" cy="50" r="50"/>
<g class="st1">
	<path class="st2" d="M34.5,80L34.5,80c-5,0-9-4-9-9V29c0-4.9,4-9,9-9h0c4.9,0,9,4,9,9v42C43.5,76,39.5,80,34.5,80z"/>
	<path class="st2" d="M65.5,80L65.5,80c-5,0-9-4-9-9V29c0-4.9,4-9,9-9h0c4.9,0,9,4,9,9v42C74.5,76,70.5,80,65.5,80z"/>
</g>
</svg>
